<?xml version="1.0" standalone="no"?>
<!DOCTYPE svg PUBLIC "-//W3C//DTD SVG 20010904//EN"
 "http://www.w3.org/TR/2001/REC-SVG-20010904/DTD/svg10.dtd">
<svg version="1.0" xmlns="http://www.w3.org/2000/svg"
 width="300.000000pt" height="213.000000pt" viewBox="0 0 300.000000 213.000000"
 preserveAspectRatio="xMidYMid meet">
<metadata>
Created by potrace 1.10, written by Peter Selinger 2001-2011
</metadata>
<g transform="translate(0.000000,213.000000) scale(0.100000,-0.100000)"
fill="#000000" stroke="none">
<path d="M1900 1962 l-176 -2 -302 -303 -302 -303 93 -91 92 -91 390 395 c215
217 388 396 385 397 -3 0 -84 0 -180 -2z m68 -52 c-6 -18 -649 -670 -661 -670
-14 0 -117 101 -117 115 0 5 125 135 277 287 l278 278 113 0 c69 0 112 -4 110
-10z"/>
<path d="M2645 1962 l-180 -2 -485 -485 -485 -484 385 -391 385 -390 182 2
181 3 -385 388 -384 388 488 484 c268 266 485 485 483 487 -3 2 -86 2 -185 0z
m75 -49 c0 -4 -200 -208 -445 -453 -322 -322 -445 -452 -445 -469 0 -16 99
-123 344 -374 189 -194 342 -355 339 -360 -2 -4 -54 -7 -116 -7 l-112 0 -362
363 c-200 199 -363 369 -363 376 0 8 208 220 463 472 l462 458 118 1 c64 0
117 -3 117 -7z"/>
<path d="M175 1085 l0 -875 128 0 127 0 0 564 0 565 260 -262 259 -262 93 92
93 93 -475 477 c-261 263 -477 479 -480 480 -3 2 -5 -391 -5 -872z m498 326
c218 -220 397 -404 397 -408 0 -5 -27 -35 -60 -68 l-60 -59 -243 242 c-134
133 -250 242 -259 242 -8 0 -23 -9 -34 -21 -18 -20 -19 -48 -24 -553 l-5 -531
-80 0 -80 0 -3 798 -2 798 27 -19 c16 -11 207 -200 426 -421z"/>
</g>
</svg>
